<svg version="1.2" xmlns="http://www.w3.org/2000/svg" viewBox="0 0 512 512" width="512" height="512">
	<title>icon-svg</title>
	<style>
		.s0 { fill: #f0f5f7 } 
		.s1 { fill: #dde9ed } 
		.s2 { fill: #c4e1e8 } 
		.s3 { fill: #a4d5dd } 
		.s4 { fill: #f6cb43 } 
		.s5 { fill: #fab03c } 
		.s6 { fill: #f8e98e } 
	</style>
	<path id="Layer" class="s0" d="m62.6 169.2c2.8-46.3 41.3-83.1 88.4-83.1 38 0 70.4 23.9 82.9 57.5 32.7 0.4 59.1 27 59.1 59.8 0 33-26.8 59.8-59.8 59.8h-168.9c-26 0-47-21-47-47 0-25.4 20.1-46.1 45.3-47z"/>
	<path id="Layer" class="s1" d="m293 203.4c0 23.9-14 44.5-34.3 54.1q1.4-3 2.5-6.1 1.1-3.1 1.8-6.3 0.7-3.3 1.1-6.5 0.3-3.3 0.3-6.6c0-32.8-26.4-59.4-59-59.8-12.6-33.6-45-57.5-83-57.5-17.1 0-33.1 4.9-46.6 13.3 15.6-25.1 43.4-41.9 75.2-41.9 38 0 70.4 23.9 82.9 57.5 32.7 0.4 59.1 27 59.1 59.8z"/>
	<path id="Layer" class="s2" d="m512 334c0 29.2-23.7 52.9-52.9 52.9h-190.1c-37.2 0-67.3-30.2-67.3-67.3 0-36.9 29.7-66.9 66.5-67.3 14.1-37.8 50.6-64.7 93.3-64.7 53 0 96.3 41.3 99.4 93.5 28.4 1 51.1 24.3 51.1 52.9z"/>
	<path id="Layer" class="s3" d="m512 334c0 29.2-23.7 52.9-52.9 52.9h-4.1q1.5-2.9 2.6-5.8 1.1-3 1.9-6.1 0.8-3.1 1.1-6.3 0.4-3.1 0.4-6.3c0-28.6-22.7-51.9-51-52.9-3.2-52.2-46.5-93.5-99.5-93.5-7.1 0-14.1 0.7-20.8 2.2 18.1-18.9 43.6-30.6 71.8-30.6 53 0 96.3 41.3 99.4 93.5 28.4 1 51.1 24.3 51.1 52.9z"/>
	<path id="Layer" class="s4" d="m428.7 225.2c0 65.5-53.1 118.6-118.6 118.6-65.5 0-118.6-53.1-118.6-118.6 0-65.5 53.1-118.6 118.6-118.6 65.5 0 118.6 53.1 118.6 118.6z"/>
	<path id="Layer" class="s5" d="m310.1 343.8c-65.5 0-118.6-53.1-118.6-118.6 0-57.4 40.8-105.3 95.1-116.2q-0.6 2.9-1.1 5.8-0.4 2.9-0.7 5.9-0.3 2.9-0.4 5.9-0.2 2.9-0.2 5.9c0 65.5 53.1 118.6 118.6 118.6 8.1 0 15.9-0.8 23.5-2.4-10.9 54.3-58.8 95.1-116.2 95.1z"/>
	<g id="Layer">
		<path id="Layer" class="s6" d="m495.6 232.9h-25.6c-2 0-4-0.8-5.5-2.2-1.4-1.5-2.2-3.4-2.2-5.5 0-2 0.8-4 2.2-5.4 1.5-1.5 3.5-2.3 5.5-2.3h25.6q1.5 0 2.9 0.6 1.4 0.6 2.5 1.7 1.1 1 1.7 2.5 0.6 1.4 0.6 2.9 0 1.6-0.6 3-0.6 1.4-1.7 2.5-1.1 1.1-2.5 1.7-1.4 0.5-3 0.5zm-46.9-79.9q-1 0-2-0.3-1-0.3-1.9-0.8-0.9-0.5-1.6-1.2-0.7-0.7-1.2-1.6-0.8-1.3-1-2.8-0.2-1.6 0.2-3.1 0.4-1.4 1.4-2.7 0.9-1.2 2.2-1.9l22.1-12.8q1.4-0.8 2.9-1 1.5-0.2 3 0.2 1.5 0.4 2.7 1.3 1.2 1 2 2.3 0.8 1.3 1 2.9 0.2 1.5-0.2 3-0.4 1.5-1.4 2.7-0.9 1.2-2.2 2l-22.2 12.7q-0.4 0.3-0.9 0.5-0.4 0.2-0.9 0.3-0.5 0.1-1 0.2-0.5 0.1-1 0.1zm-58.6-58.6c-1.3 0-2.7-0.3-3.8-1-1.2-0.7-2.2-1.7-2.9-2.8-0.6-1.2-1-2.5-1-3.9 0-1.4 0.4-2.7 1-3.9l12.8-22.1q0.8-1.3 2-2.3 1.2-0.9 2.7-1.3 1.5-0.4 3-0.2 1.5 0.2 2.9 1 1.3 0.8 2.2 2 1 1.2 1.4 2.7 0.4 1.5 0.2 3-0.2 1.5-1 2.8l-12.8 22.2q-0.5 0.8-1.2 1.6-0.7 0.7-1.6 1.2-0.9 0.5-1.9 0.8-1 0.2-2 0.2zm-79.9-21.4q-1.6 0-3-0.6-1.4-0.6-2.5-1.7-1.1-1.1-1.7-2.5-0.6-1.4-0.6-2.9v-25.6c0-2 0.8-4 2.3-5.4 1.4-1.5 3.4-2.3 5.5-2.3 2 0 4 0.8 5.4 2.3 1.5 1.4 2.3 3.4 2.3 5.4v25.6q0 1.5-0.6 2.9-0.6 1.4-1.7 2.5-1.1 1.1-2.5 1.7-1.4 0.6-2.9 0.6zm-80 21.4q-1 0-2-0.2-1-0.3-1.9-0.8-0.9-0.5-1.6-1.2-0.7-0.8-1.2-1.6l-12.8-22.2c-1-1.7-1.2-3.8-0.7-5.8 0.5-2 1.8-3.6 3.6-4.7 1.7-1 3.8-1.3 5.8-0.7 2 0.5 3.7 1.8 4.7 3.5l12.8 22.1q0.7 1.4 0.9 2.9 0.2 1.5-0.1 3-0.4 1.5-1.4 2.7-0.9 1.2-2.3 2-0.4 0.2-0.9 0.4-0.4 0.2-0.9 0.4-0.5 0.1-1 0.2-0.5 0-1 0z"/>
	</g>
	<path id="Layer" class="s2" d="m310.3 334c0 29.2-23.7 52.9-52.9 52.9h-190.1c-37.2 0-67.3-30.2-67.3-67.3 0-36.9 29.7-66.9 66.5-67.3 14.1-37.8 50.6-64.7 93.3-64.7 53 0 96.3 41.3 99.4 93.5 28.4 1 51.1 24.3 51.1 52.9z"/>
	<path id="Layer" class="s3" d="m310.3 334c0 29.2-23.7 52.9-52.9 52.9h-4.1q1.5-2.9 2.6-5.8 1.1-3 1.9-6.1 0.8-3.1 1.1-6.3 0.4-3.1 0.4-6.3c0-28.6-22.7-51.9-51-52.9-3.2-52.2-46.5-93.5-99.5-93.5-7.1 0-14.1 0.7-20.8 2.2 18.1-18.9 43.6-30.6 71.8-30.6 53 0 96.3 41.3 99.5 93.5 28.3 1 51 24.3 51 52.9z"/>
	<path id="Layer" class="s0" d="m469.6 427.6c0 29.3-23.7 52.9-52.9 52.9h-190.1c-37.1 0-67.3-30.1-67.3-67.3 0-36.9 29.7-66.8 66.5-67.3 14.2-37.7 50.6-64.6 93.3-64.6 53 0 96.3 41.3 99.5 93.5 28.3 1 51 24.2 51 52.8z"/>
	<path id="Layer" class="s1" d="m469.6 427.6c0 29.3-23.7 52.9-52.9 52.9h-4.1q1.5-2.8 2.6-5.8 1.2-2.9 1.9-6 0.8-3.1 1.2-6.3 0.3-3.2 0.3-6.4c0-28.5-22.7-51.8-51-52.8-3.2-52.2-46.5-93.5-99.5-93.5-7.1 0-14.1 0.7-20.8 2.1 18.1-18.8 43.6-30.5 71.8-30.5 53 0 96.3 41.3 99.5 93.5 28.3 1 51 24.2 51 52.8z"/>
	<path id="Layer" class="s0" d="m392.2 368.9q-1.3 0-2.5-0.4-1.3-0.4-2.3-1.2-1-0.8-1.7-1.9-0.7-1.1-1-2.4-0.3-1.4-0.7-2.8-0.4-1.3-0.9-2.7-0.5-1.4-1-2.7-0.5-1.4-1-2.7-0.7-1.4-0.7-2.9 0-1.6 0.6-3 0.5-1.4 1.6-2.5 1.1-1.1 2.5-1.7 1.4-0.7 2.9-0.7 1.6 0 3 0.6 1.4 0.5 2.5 1.6 1.1 1.1 1.7 2.5 0.7 1.6 1.4 3.3 0.6 1.6 1.2 3.3 0.5 1.7 1 3.4 0.5 1.7 0.9 3.4c1 4.2-1.5 8.3-5.7 9.3q-0.2 0.1-0.4 0.1-0.3 0.1-0.5 0.1-0.2 0-0.5 0-0.2 0-0.4 0zm-18.8-34.3q-0.8 0-1.6-0.2-0.7-0.1-1.5-0.4-0.7-0.3-1.3-0.8-0.7-0.4-1.2-1c-12.9-13.4-30.2-20.8-48.7-20.8-2 0-4-0.8-5.4-2.3-1.5-1.4-2.3-3.4-2.3-5.4 0-2.1 0.8-4 2.3-5.5 1.4-1.4 3.4-2.2 5.4-2.2 22.8 0 44 9 59.8 25.5 1.1 1.1 1.8 2.5 2.1 4 0.2 1.5 0.1 3-0.5 4.4-0.6 1.4-1.6 2.6-2.9 3.4-1.2 0.8-2.7 1.3-4.2 1.3zm-294.5 70.3c2.2-37.3 33.2-66.8 71.1-66.8 30.5 0 56.6 19.2 66.7 46.2 26.3 0.3 47.5 21.7 47.5 48.1 0 26.6-21.5 48.1-48.1 48.1h-135.9c-20.9 0-37.8-16.9-37.8-37.8 0-20.4 16.2-37.1 36.5-37.8z"/>
	<path id="Layer" class="s1" d="m264.2 432.4c0 26.4-21.2 47.8-47.4 48.1 7.8-8.5 12.6-20 12.6-32.5 0-26.4-21.2-47.8-47.5-48.1-10.1-27-36.2-46.3-66.7-46.3q-5.4 0.1-10.6 0.8c12.3-10.2 28.1-16.3 45.4-16.3 30.5 0 56.6 19.2 66.7 46.2 26.3 0.3 47.5 21.7 47.5 48.1z"/>
</svg>